# xmcd
#
# Track frame offsets:
#	150
#	19129
#	34021
#	55363
#	73667
#	87246
#	107313
#	124080
#	134659
#	149438
#	162042
#	181996
#	198435
#	214077
#	228144
#	242474
#	261078
#
# Disc length: 3838 seconds
#
# Revision: 0
# Processed by: cddbd v1.5.2PL0 Copyright (c) Steve Scherf et al.
# Submitted via: audiograbber 1.83.01
#
DISCID=ea0efc11
DTITLE=Greyhound George - All You Can Eat!
DYEAR=2010
DGENRE=Blues
TTITLE0=Gone For Good
TTITLE1=Saddle Up My Pony 
TTITLE2=Dark Was The Night - People Get Ready
TTITLE3=I´m Doing Fine 
TTITLE4=Chicken 
TTITLE5=Blues For You
TTITLE6=Preachin´Blues 
TTITLE7=Your Mind Is On Vacation
TTITLE8=Rats In My Kitchen
TTITLE9=Hey, Pretty Mama
TTITLE10=Ice In Her Pocket
TTITLE11=Ain´t Nobody Home
TTITLE12=What´s Up
TTITLE13=Jitterbug Swing 
TTITLE14=What You See Is What You Get 
TTITLE15=All You Can Eat
TTITLE16=Blind Willie McTell
EXTD=
EXTT0=
EXTT1=
EXTT2=
EXTT3=
EXTT4=
EXTT5=
EXTT6=
EXTT7=
EXTT8=
EXTT9=
EXTT10=
EXTT11=
EXTT12=
EXTT13=
EXTT14=
EXTT15=
EXTT16=
PLAYORDER=
